name Walk9.mot
datacolumns 19
datarows 17
range 2.82100000 2.83700000
endheader

                time	   L_ground_force_vx	   L_ground_force_vy	   L_ground_force_vz	   L_ground_force_px	   L_ground_force_py	   L_ground_force_pz	   R_ground_force_vx	   R_ground_force_vy	   R_ground_force_vz	   R_ground_force_px	   R_ground_force_py	   R_ground_force_pz	   L_ground_torque_x	   L_ground_torque_y	   L_ground_torque_z	   R_ground_torque_x	   R_ground_torque_y	   R_ground_torque_z	
          2.82100000	          7.19414318	        755.38953485	         52.69802390	         -0.18934448	          0.00000000	         -0.06334492	          0.00000000	          0.00000000	          0.00000000	          0.00000000	          0.00000000	          0.00000000	          0.00000000	          3.22742606	          0.00000000	          0.00000000	          0.00000000	          0.00000000	
          2.82200000	          7.68083344	        756.39380399	         52.76996161	         -0.18915465	          0.00000000	         -0.06344660	          0.00000000	          0.00000000	          0.00000000	          0.00000000	          0.00000000	          0.00000000	          0.00000000	          3.22799020	          0.00000000	          0.00000000	          0.00000000	          0.00000000	
          2.82300000	          8.19022150	        757.32430596	         52.83947269	         -0.18899302	          0.00000000	         -0.06354560	          0.00000000	          0.00000000	          0.00000000	          0.00000000	          0.00000000	          0.00000000	          0.00000000	          3.21695068	          0.00000000	          0.00000000	          0.00000000	          0.00000000	
          2.82400000	          8.72530767	        758.20254829	         52.91009348	         -0.18885922	          0.00000000	         -0.06362246	          0.00000000	          0.00000000	          0.00000000	          0.00000000	          0.00000000	          0.00000000	          0.00000000	          3.19518405	          0.00000000	          0.00000000	          0.00000000	          0.00000000	
          2.82500000	          9.28444319	        759.06335470	         52.98731209	         -0.18874117	          0.00000000	         -0.06365927	          0.00000000	          0.00000000	          0.00000000	          0.00000000	          0.00000000	          0.00000000	          0.00000000	          3.17113571	          0.00000000	          0.00000000	          0.00000000	          0.00000000	
          2.82600000	          9.86094958	        759.93372490	         53.07594534	         -0.18862072	          0.00000000	         -0.06364426	          0.00000000	          0.00000000	          0.00000000	          0.00000000	          0.00000000	          0.00000000	          0.00000000	          3.15722785	          0.00000000	          0.00000000	          0.00000000	          0.00000000	
          2.82700000	         10.44030026	        760.83201704	         53.17596295	         -0.18848535	          0.00000000	         -0.06358901	          0.00000000	          0.00000000	          0.00000000	          0.00000000	          0.00000000	          0.00000000	          0.00000000	          3.16174202	          0.00000000	          0.00000000	          0.00000000	          0.00000000	
          2.82800000	         11.00943781	        761.78189067	         53.28300535	         -0.18833553	          0.00000000	         -0.06353565	          0.00000000	          0.00000000	          0.00000000	          0.00000000	          0.00000000	          0.00000000	          0.00000000	          3.18430960	          0.00000000	          0.00000000	          0.00000000	          0.00000000	
          2.82900000	         11.56727367	        762.79645673	         53.39131183	         -0.18818504	          0.00000000	         -0.06352624	          0.00000000	          0.00000000	          0.00000000	          0.00000000	          0.00000000	          0.00000000	          0.00000000	          3.21772116	          0.00000000	          0.00000000	          0.00000000	          0.00000000	
          2.83000000	         12.12006610	        763.84293392	         53.49373914	         -0.18805310	          0.00000000	         -0.06356718	          0.00000000	          0.00000000	          0.00000000	          0.00000000	          0.00000000	          0.00000000	          0.00000000	          3.25255621	          0.00000000	          0.00000000	          0.00000000	          0.00000000	
          2.83100000	         12.67179666	        764.86356140	         53.58706139	         -0.18795180	          0.00000000	         -0.06363167	          0.00000000	          0.00000000	          0.00000000	          0.00000000	          0.00000000	          0.00000000	          0.00000000	          3.28052557	          0.00000000	          0.00000000	          0.00000000	          0.00000000	
          2.83200000	         13.22062376	        765.83317374	         53.67796149	         -0.18787621	          0.00000000	         -0.06368781	          0.00000000	          0.00000000	          0.00000000	          0.00000000	          0.00000000	          0.00000000	          0.00000000	          3.29535184	          0.00000000	          0.00000000	          0.00000000	          0.00000000	
          2.83300000	         13.76283725	        766.76617028	         53.77540212	         -0.18780605	          0.00000000	         -0.06371453	          0.00000000	          0.00000000	          0.00000000	          0.00000000	          0.00000000	          0.00000000	          0.00000000	          3.29403417	          0.00000000	          0.00000000	          0.00000000	          0.00000000	
          2.83400000	         14.30066338	        767.68193211	         53.88098014	         -0.18771776	          0.00000000	         -0.06370005	          0.00000000	          0.00000000	          0.00000000	          0.00000000	          0.00000000	          0.00000000	          0.00000000	          3.27958422	          0.00000000	          0.00000000	          0.00000000	          0.00000000	
          2.83500000	         14.84119217	        768.58845969	         53.99312948	         -0.18759565	          0.00000000	         -0.06364354	          0.00000000	          0.00000000	          0.00000000	          0.00000000	          0.00000000	          0.00000000	          0.00000000	          3.26061000	          0.00000000	          0.00000000	          0.00000000	          0.00000000	
          2.83600000	         15.38884956	        769.49794282	         54.11330735	         -0.18743869	          0.00000000	         -0.06355726	          0.00000000	          0.00000000	          0.00000000	          0.00000000	          0.00000000	          0.00000000	          0.00000000	          3.24662093	          0.00000000	          0.00000000	          0.00000000	          0.00000000	
          2.83700000	         15.94578804	        770.43487463	         54.23999075	         -0.18726063	          0.00000000	         -0.06346128	          0.00000000	          0.00000000	          0.00000000	          0.00000000	          0.00000000	          0.00000000	          0.00000000	          3.24393498	          0.00000000	          0.00000000	          0.00000000	          0.00000000	
